<?xml version="1.0" encoding="UTF-8" standalone="no"?>
<!-- Created with Inkscape (http://www.inkscape.org/) -->

<svg
   xmlns:dc="http://purl.org/dc/elements/1.1/"
   xmlns:cc="http://creativecommons.org/ns#"
   xmlns:rdf="http://www.w3.org/1999/02/22-rdf-syntax-ns#"
   xmlns:svg="http://www.w3.org/2000/svg"
   xmlns="http://www.w3.org/2000/svg"
   xmlns:xlink="http://www.w3.org/1999/xlink"
   xmlns:sodipodi="http://sodipodi.sourceforge.net/DTD/sodipodi-0.dtd"
   xmlns:inkscape="http://www.inkscape.org/namespaces/inkscape"
   width="1052.3622"
   height="744.09448"
   id="svg2"
   version="1.1"
   inkscape:version="0.48.4 r9939"
   sodipodi:docname="firebeat_logo.png">
  <defs
     id="defs4">
    <linearGradient
       id="linearGradient3885">
      <stop
         style="stop-color:#ed9a27;stop-opacity:1;"
         offset="0"
         id="stop3887" />
      <stop
         style="stop-color:#f39872;stop-opacity:0;"
         offset="1"
         id="stop3890" />
    </linearGradient>
    <linearGradient
       id="linearGradient3887">
      <stop
         style="stop-color:#4cac0a;stop-opacity:1;"
         offset="0"
         id="stop3889" />
      <stop
         id="stop3895"
         offset="0.5"
         style="stop-color:#f3790a;stop-opacity:0.49803922;" />
      <stop
         style="stop-color:#e7790a;stop-opacity:0;"
         offset="1"
         id="stop3891" />
    </linearGradient>
    <linearGradient
       inkscape:collect="always"
       xlink:href="#linearGradient3885"
       id="linearGradient3892"
       x1="-66.928566"
       y1="317.66592"
       x2="228.35715"
       y2="317.66592"
       gradientUnits="userSpaceOnUse" />
  </defs>
  <sodipodi:namedview
     id="base"
     pagecolor="#ffffff"
     bordercolor="#666666"
     borderopacity="1.0"
     inkscape:pageopacity="0.0"
     inkscape:pageshadow="2"
     inkscape:zoom="0.98994949"
     inkscape:cx="199.92465"
     inkscape:cy="379.30511"
     inkscape:document-units="px"
     inkscape:current-layer="layer1"
     showgrid="false"
     showguides="true"
     inkscape:guide-bbox="true"
     inkscape:window-width="1920"
     inkscape:window-height="1056"
     inkscape:window-x="1366"
     inkscape:window-y="24"
     inkscape:window-maximized="1" />
  <metadata
     id="metadata7">
    <rdf:RDF>
      <cc:Work
         rdf:about="">
        <dc:format>image/svg+xml</dc:format>
        <dc:type
           rdf:resource="http://purl.org/dc/dcmitype/StillImage" />
        <dc:title></dc:title>
      </cc:Work>
    </rdf:RDF>
  </metadata>
  <g
     inkscape:label="Layer 1"
     inkscape:groupmode="layer"
     id="layer1"
     transform="translate(0,-308.2677)">
    <path
       sodipodi:type="arc"
       style="fill:#f38f00;fill-opacity:1;stroke:url(#linearGradient3892);stroke-opacity:1"
       id="path3006"
       sodipodi:cx="80.714287"
       sodipodi:cy="317.66592"
       sodipodi:rx="147.14285"
       sodipodi:ry="147.14285"
       d="m 227.85714,317.66592 c 0,81.26476 -65.8781,147.14286 -147.142853,147.14286 -81.26475383,0 -147.142853,-65.8781 -147.142853,-147.14286 0,-81.26475 65.87809917,-147.14285 147.142853,-147.14285 81.264753,0 147.142853,65.8781 147.142853,147.14285 z"
       transform="matrix(2.0518644,0,0,2.0518644,354.38522,2.2836171)" />
    <path
       style="fill:#ffffff;stroke:#ffffff;stroke-width:1.73689389px;stroke-linecap:butt;stroke-linejoin:miter;stroke-opacity:1"
       d="m 422.35932,674.23237 c 0,0 -2.48127,-34.73789 -3.10161,-43.42237 -0.62033,-8.68446 18.91974,-66.99445 18.91974,-66.99445 l 15.19782,-48.69506 c 0,0 19.2299,7.75398 20.16037,27.29404 0.9305,19.54007 -4.03205,43.42235 -4.03205,43.42235 l -7.754,31.01598 -20.78071,12.0962 z"
       id="path2996"
       inkscape:connector-curvature="0" />
    <path
       style="fill:#ffffff;stroke:#ffffff;stroke-width:1.73689389px;stroke-linecap:butt;stroke-linejoin:miter;stroke-opacity:1"
       d="M 439.4181,657.48375 450.894,634.8421 566.89372,557.92253 c 0,0 8.06415,30.7058 2.17111,36.59879 -5.89301,5.89308 -50.86618,44.04271 -50.86618,44.04271 0,0 -16.1283,-0.62032 -21.71118,3.72188 -5.58289,4.34226 -15.81814,11.47594 -15.81814,11.47594 0,0 -22.33151,-7.44387 -41.25123,3.7219 z"
       id="path2998"
       inkscape:connector-curvature="0" />
    <path
       style="fill:#ffffff;stroke:#ffffff;stroke-width:1.73689389px;stroke-linecap:butt;stroke-linejoin:miter;stroke-opacity:1"
       d="m 534.94726,663.68695 26.05343,13.02669 c 0,0 9.30479,2.48129 10.23526,-4.96254 0.93049,-7.44381 7.44385,-38.45979 7.44385,-38.45979 0,0 5.89307,-19.85023 5.58289,-21.40103 -0.31016,-1.55078 0.93048,-4.03207 -3.72193,-7.13368 -4.65239,-3.10158 -11.78609,-6.2032 -14.88766,-1.2406 -3.10163,4.96254 -18.8884,20.14079 -38.76999,32.56674 -2.48129,1.5508 8.06415,27.60421 8.06415,27.60421 z"
       id="path3000"
       inkscape:connector-curvature="0"
       sodipodi:nodetypes="ccsccsssc" />
    <path
       style="fill:#ffffff;stroke:#ffffff;stroke-width:1.79189527px;stroke-linecap:butt;stroke-linejoin:miter;stroke-opacity:1"
       d="m 492.9205,965.70171 119.80888,-0.93578 -12.14505,-43.35787 c 0,0 16.41217,-55.52304 16.41217,-77.046 0,-21.523 0,-21.523 0,-21.523 0,0 -16.7404,-24.64224 -18.38163,-37.11932 -1.64124,-12.4771 -8.86256,-16.84405 -19.69454,-19.3395 -10.83207,-2.49542 -11.1603,6.8624 -11.1603,6.8624 l -12.80149,21.52298 c 0,0 -4.92367,7.79815 -11.48854,6.23856 -6.56488,-1.55964 -16.08394,-5.6147 -16.08394,-5.6147 0,0 0,4.99084 5.25189,10.29363 5.25193,5.30271 25.60301,30.88077 25.60301,30.88077 0,0 15.75572,17.46792 16.7404,22.77065 0.98476,5.30279 2.29771,17.77987 2.29771,17.77987 0,0 -3.61069,-15.59634 -8.2061,-20.8991 -4.59541,-5.30278 -48.58002,-32.75238 -48.58002,-32.75238 l -30.52663,-1.24772 c 0,0 5.90839,-9.66972 3.28243,-11.54128 -2.62593,-1.87158 -14.44271,-4.367 -34.7938,-5.30278 -20.35108,-0.93578 -20.35108,-0.93578 -20.35108,-0.93578 l 11.48852,-16.84408 -18.70988,-18.40369 -16.08393,-1.87155 c 0,0 24.29003,-6.86242 23.96179,-33.68815 24.94648,2.49542 56.78607,2.1835 56.78607,2.1835 0,0 4.92367,40.86245 37.74801,40.23861 -18.0534,-60.20198 -16.08392,-47.41296 -18.0534,-60.20198 -1.96946,-12.78899 -1.96946,-12.78899 -1.96946,-12.78899 -23.63351,-0.62384 -71.88529,-7.17433 -75.49598,-4.99085 -3.61065,2.18349 -19.03811,16.22025 -19.03811,16.22025 0,0 16.08394,-24.01842 21.99235,-24.64226 5.90835,-0.62388 79.43487,6.86239 79.43487,6.86239 0,0 55.8014,43.35788 63.351,42.73402 7.54956,-0.62386 0.65648,-10.91748 0.65648,-10.91748 0,0 -35.45028,-47.10097 -39.71745,-48.97253 -4.26717,-1.87158 -33.80909,-11.22938 -66.96166,-12.78902 -33.1526,-1.55962 -41.68694,-2.17288 -41.68694,-2.17288 0,0 -30.52661,42.72343 -52.5189,85.45745 -21.99231,42.734 -20.02286,42.11013 -20.02286,42.11013 0,0 79.76314,89.21121 109.30503,112.60574 7.87786,23.08262 20.35108,61.13772 20.35108,61.13772 z"
       id="path3002"
       inkscape:connector-curvature="0"
       sodipodi:nodetypes="cccscssccscscscsccsscccccccscscscscsscsccc" />
    <path
       style="fill:#ffffff;stroke:#ffffff;stroke-width:0.78142977px;stroke-linecap:butt;stroke-linejoin:miter;stroke-opacity:1"
       d="m 508.41181,567.46962 -37.3982,-108.83015 34.68151,67.62844 19.78978,-136.60531 -4.02418,143.69495 58.49547,-45.59452 z"
       id="path3913"
       inkscape:connector-curvature="0"
       sodipodi:nodetypes="ccccccc" />
    <path
       style="fill:#ffffff;stroke:none"
       d="m 504.57119,501.32396 -29.79949,-80.81221 17.47405,34.3998 z"
       id="path3817"
       inkscape:connector-curvature="0" />
    <path
       style="fill:#ffffff;stroke:none"
       d="m 393.70695,609.91537 -68.18529,-106.06602 28.28427,63.13454 z"
       id="path3817-5"
       inkscape:connector-curvature="0"
       sodipodi:nodetypes="cccc" />
  </g>
</svg>
